<?xml version="1.0" encoding="UTF-8"?>
<svg id="p2" data-name="p2" xmlns="http://www.w3.org/2000/svg" xmlns:xlink="http://www.w3.org/1999/xlink" viewBox="0 0 195.56 210.34">
  <defs>
    <style>
      .cls-1 {
        fill: url(#jb139-4);
      }

      .cls-1, .cls-2, .cls-3, .cls-4, .cls-5 {
        stroke-width: 0px;
      }

      .cls-2 {
        fill: url(#jb139-3);
      }

      .cls-3 {
        fill: #444;
      }

      .cls-4 {
        fill: url(#jb139-2);
      }

      .cls-5 {
        fill: url(#jb139);
      }
    </style>
    <linearGradient id="jb139" x1="-24.18" y1="35.21" x2="145.53" y2="132.16" gradientUnits="userSpaceOnUse">
      <stop offset="0" stop-color="#fff"/>
      <stop offset="0" stop-color="#ecd4e9"/>
      <stop offset="0" stop-color="#be6bb5"/>
      <stop offset="0" stop-color="#920783"/>
      <stop offset=".1" stop-color="#6351ae"/>
      <stop offset=".2" stop-color="#2ea7e0"/>
      <stop offset=".32" stop-color="#69b86a"/>
      <stop offset=".4" stop-color="#8fc31f"/>
      <stop offset=".6" stop-color="#faee00"/>
      <stop offset=".8" stop-color="#f39800"/>
      <stop offset="1" stop-color="#e72a46"/>
    </linearGradient>
    <linearGradient id="jb139-2" x1="-26.53" y1="38.63" x2="142.33" y2="133.46" xlink:href="#jb139"/>
    <linearGradient id="jb139-3" x1="-22.8" y1="32.44" x2="146.61" y2="129.89" xlink:href="#jb139"/>
    <linearGradient id="jb139-4" x1="-27.16" y1="40.24" x2="143.54" y2="135.81" xlink:href="#jb139"/>
  </defs>
  <g id="p1-2">
    <g>
      <g>
        <path class="cls-3" d="M165.36,29.77v7.21h-57.38v25.38c.38,0,.7,0,1.02,0,17.07,0,34.14,0,51.21.02.76,0,1.55.07,2.28.29,1.8.54,2.95,1.73,3.04,3.68.09,2.15.09,4.3.09,6.45,0,8.82.02,17.65-.01,26.47,0,.89-.08,1.86-.42,2.66-.7,1.63-2.04,2.46-3.86,2.46-6.12,0-12.24,0-18.37,0-13.46,0-26.91-.01-40.37-.02-.57,0-1.15,0-1.77,0v-7.18h57.44v-27.41c-.44,0-.82,0-1.2,0-16.96,0-33.92,0-50.88-.01-.73,0-1.5-.05-2.2-.27-2.46-.77-3.52-2.25-3.52-4.85,0-10.01.07-20.02-.04-30.03-.04-3.31,1.75-4.95,5-4.93,16.85.09,33.7.05,50.55.06,3.11,0,6.23,0,9.41,0Z"/>
        <path class="cls-3" d="M108.04,152.47v27.48h-7.31c-.02-.29-.06-.58-.06-.87,0-22.22-.01-44.45-.01-66.67,0-1.02,0-2.04.59-2.95.88-1.34,2.15-1.94,3.71-1.94,5.4-.01,10.81,0,16.21-.01,13.1-.01,26.19-.02,39.29-.05,1.56,0,3.04.17,4.18,1.39.81.86,1,1.92.99,3.06,0,11,0,22,0,33.01,0,1.02.02,2.04,0,3.06-.04,2.84-1.69,4.52-4.55,4.53-5.43.02-10.86,0-16.3,0-11.72,0-23.44-.02-35.15-.03-.49,0-.98,0-1.59,0ZM108.04,114.66v30.65h50.19v-30.65h-50.19Z"/>
        <path class="cls-3" d="M37.34,146.26v33.68h-7.28v-71.92h7.28v31.01h50.3v-30.91h7.25v71.84h-7.15v-33.7h-50.39Z"/>
        <path class="cls-3" d="M94.61,29.81v7.14h-57.25v60.18h57.34v7.19c-.3.02-.54.05-.78.05-19.41,0-38.82,0-58.24-.02-.52,0-1.05,0-1.57-.02-2.58-.13-4.12-1.71-4.12-4.29-.01-5.68,0-11.36,0-17.04,0-15.99,0-31.99,0-47.98,0-.39,0-.77,0-1.16.08-2.47,1.76-4.11,4.23-4.11,8.3,0,16.6,0,24.9,0,11.53.01,23.05.03,34.58.05.29,0,.59,0,.9,0Z"/>
      </g>
      <g>
        <path class="cls-5" d="M15.46,15.23h164.73v179.36H15.46V15.23ZM165.36,29.77c-3.18,0-6.29,0-9.41,0-16.85,0-33.7.03-50.55-.06-3.25-.02-5.03,1.62-5,4.93.11,10.01.03,20.02.04,30.03,0,2.6,1.06,4.07,3.52,4.85.69.22,1.46.27,2.2.27,16.96.01,33.92.01,50.88.01.38,0,.76,0,1.2,0v27.41h-57.44v7.18c.63,0,1.2,0,1.77,0,13.46,0,26.91.01,40.37.02,6.12,0,12.24,0,18.37,0,1.82,0,3.16-.83,3.86-2.46.34-.8.42-1.77.42-2.66.03-8.82.02-17.65.01-26.47,0-2.15,0-4.3-.09-6.45-.08-1.95-1.23-3.14-3.04-3.68-.73-.22-1.52-.29-2.28-.29-17.07-.02-34.14-.02-51.21-.02-.32,0-.64,0-1.02,0v-25.38h57.38v-7.21ZM108.04,152.47c.61,0,1.1,0,1.59,0,11.72.01,23.44.02,35.15.03,5.43,0,10.86.02,16.3,0,2.86-.01,4.51-1.69,4.55-4.53.01-1.02,0-2.04,0-3.06,0-11,0-22,0-33.01,0-1.14-.19-2.2-.99-3.06-1.14-1.21-2.61-1.39-4.18-1.39-13.1.03-26.19.04-39.29.05-5.4,0-10.81,0-16.21.01-1.56,0-2.82.61-3.71,1.94-.6.91-.59,1.93-.59,2.95,0,22.22,0,44.45.01,66.67,0,.29.04.58.06.87h7.31v-27.48ZM37.34,146.26h50.39v33.7h7.15v-71.84h-7.25v30.91h-50.3v-31.01h-7.28v71.92h7.28v-33.68ZM94.61,29.81c-.31,0-.61,0-.9,0-11.53-.02-23.05-.04-34.58-.05-8.3,0-16.6,0-24.9,0-2.47,0-4.15,1.65-4.23,4.11-.01.39,0,.77,0,1.16,0,15.99,0,31.99,0,47.98,0,5.68-.01,11.36,0,17.04,0,2.58,1.54,4.16,4.12,4.29.52.03,1.05.02,1.57.02,19.41,0,38.82.01,58.24.02.24,0,.48-.03.78-.05v-7.19h-57.34v-60.18h57.25v-7.14Z"/>
        <path class="cls-4" d="M15.24,210.34v-14.04h166.65V15.09h13.67v195.25H15.24Z"/>
        <path class="cls-2" d="M180.4,0v13.61H13.67v181.28H0V0h180.4Z"/>
        <path class="cls-1" d="M108.04,114.66h50.19v30.65h-50.19v-30.65Z"/>
      </g>
    </g>
  </g>
</svg>
